<svg version="1.0" xmlns="http://www.w3.org/2000/svg"
 width="2533.000000pt" height="1156.000000pt" viewBox="0 0 2533.000000 1156.000000"
 preserveAspectRatio="xMidYMid meet">
<g transform="translate(0.000000,1156.000000) scale(0.100000,-0.100000)"
fill="#000000" stroke="none">
<path d="M14760 10754 c-36 -2 -166 -8 -290 -14 -1036 -50 -2095 -192 -3038
-410 -745 -173 -1652 -462 -2517 -805 -1648 -652 -3062 -1486 -4301 -2538
l-172 -146 -123 -16 c-487 -62 -897 -180 -1369 -394 -252 -115 -522 -280 -745
-457 -133 -106 -358 -324 -467 -454 -401 -476 -652 -1063 -724 -1690 -23 -203
-15 -628 15 -815 22 -134 67 -332 101 -442 l19 -62 -110 -193 c-387 -676 -626
-1170 -843 -1743 -31 -82 -86 -213 -122 -289 -74 -157 -82 -191 -45 -191 21 0
58 58 299 465 151 256 427 721 614 1034 l340 569 72 -139 c290 -561 742 -1026
1353 -1397 571 -346 1227 -544 2013 -607 176 -15 3920 -25 5133 -15 l897 7
-153 88 c-439 250 -764 490 -1076 795 -570 557 -906 1179 -1045 1935 -73 399
-85 883 -30 1320 7 63 14 121 14 128 0 9 -302 12 -1475 12 -1331 0 -1478 -2
-1515 -16 -33 -13 -86 -70 -303 -328 -459 -543 -987 -1175 -987 -1180 0 -4
794 -6 1765 -6 l1765 0 0 -485 0 -485 -1232 0 c-1300 1 -1694 8 -1843 35 -284
50 -600 176 -841 336 -142 95 -344 294 -433 428 -108 164 -184 344 -227 541
-27 122 -27 448 0 570 30 136 72 256 136 385 226 453 672 791 1225 930 293 74
140 69 2225 75 l1875 5 52 22 c126 51 185 102 382 328 368 423 966 1005 1156
1127 39 25 144 85 235 133 210 111 240 129 240 136 0 26 -180 29 -1915 35
-990 3 -2004 8 -2253 12 l-453 7 153 91 c633 378 1261 671 2089 974 1904 697
3727 1011 5869 1010 1333 -1 2907 -146 3905 -360 2106 -453 4072 -1246 5854
-2362 95 -60 175 -108 177 -106 1 2 97 278 213 613 197 574 216 636 321 1045
62 239 122 474 135 522 l23 87 -306 154 c-1706 861 -3458 1461 -5347 1831
-906 177 -1729 282 -2740 347 -157 10 -1477 21 -1625 13z m935 -249 l36 -65
95 6 c52 4 94 5 94 2 0 -3 -27 -24 -60 -47 -32 -23 -62 -46 -65 -52 -4 -5 10
-39 30 -75 20 -36 35 -67 33 -69 -1 -1 -40 14 -85 35 l-82 38 -71 -50 c-40
-27 -73 -48 -76 -46 -2 3 5 35 15 73 19 67 19 85 2 85 -5 0 -39 14 -76 31 -76
34 -74 48 5 49 25 0 61 3 81 6 36 6 37 7 54 80 11 40 22 71 26 68 4 -2 24 -33
44 -69z m1984 -119 c23 -40 47 -78 54 -83 7 -7 45 -7 102 -1 149 15 151 12 52
-57 -47 -33 -86 -63 -87 -66 0 -4 20 -42 45 -85 25 -44 41 -80 36 -82 -4 -1
-47 16 -95 38 -49 22 -95 40 -104 40 -10 -1 -53 -27 -97 -60 -44 -32 -81 -57
-83 -55 -2 2 6 37 17 77 12 41 21 82 21 92 0 12 -28 30 -96 62 -53 24 -95 47
-92 49 2 2 53 9 112 14 60 6 111 13 113 15 3 2 14 39 25 82 19 77 25 94 33 94
2 0 22 -33 44 -74z m-3979 3 l20 -39 68 0 c65 -1 66 -1 46 -18 -11 -9 -31 -24
-45 -34 l-24 -16 27 -52 c26 -50 26 -51 5 -44 -12 4 -39 15 -61 26 l-38 19
-51 -35 c-28 -20 -52 -34 -54 -33 -2 2 3 25 11 50 16 53 14 56 -51 82 -24 10
-43 21 -43 26 0 5 24 9 53 9 28 0 57 4 64 8 6 4 17 29 23 55 14 53 22 52 50
-4z m-1991 -305 l22 -47 72 6 c79 5 79 7 -1 -52 l-27 -20 23 -43 c12 -24 22
-46 22 -51 0 -4 -22 4 -50 18 -27 14 -54 25 -60 25 -5 0 -32 -16 -59 -35 l-49
-36 14 53 c7 29 14 54 14 55 0 1 -26 14 -57 29 l-58 27 65 9 c70 10 76 14 85
70 4 21 10 38 14 38 4 0 17 -21 30 -46z m7959 -83 c23 -43 48 -83 55 -89 8 -6
40 -7 92 -2 44 5 98 9 120 9 l40 1 -89 -64 c-48 -36 -90 -66 -92 -69 -2 -2 18
-42 44 -88 27 -46 46 -85 42 -87 -5 -2 -53 18 -108 44 l-101 46 -83 -59 c-46
-33 -88 -63 -95 -66 -7 -5 -1 30 14 90 14 53 22 99 17 100 -5 2 -54 25 -109
52 l-100 48 90 7 c50 4 107 9 127 12 l36 6 23 94 c13 52 25 94 28 94 4 0 25
-35 49 -79z m-9948 -491 l20 -40 58 6 57 5 -30 -25 c-16 -14 -33 -26 -37 -26
-14 0 -8 -28 13 -65 l22 -36 -39 16 c-64 28 -71 28 -110 1 -21 -14 -40 -24
-42 -21 -2 2 1 18 7 36 16 45 16 45 -34 66 -25 10 -45 21 -45 25 0 4 23 8 52
10 47 3 52 5 61 33 4 17 10 36 12 43 7 20 13 14 35 -28z m11945 -80 c33 -60
65 -111 70 -113 6 -2 75 2 154 9 129 12 164 12 150 1 -2 -2 -50 -36 -106 -76
-57 -40 -106 -77 -109 -82 -3 -5 22 -58 55 -117 33 -58 58 -108 56 -110 -2 -2
-61 22 -130 54 -70 31 -132 57 -138 57 -7 0 -63 -37 -124 -82 -62 -45 -113
-76 -113 -69 0 7 14 62 30 123 16 60 26 112 22 116 -4 3 -59 29 -122 58 -63
28 -121 55 -128 60 -15 9 35 16 188 27 52 4 100 11 107 16 6 5 24 61 39 124
16 62 31 114 34 114 3 0 32 -50 65 -110z"/>
<path d="M19455 6974 c-321 -50 -598 -198 -861 -459 -179 -178 -34 22 -2099
-2885 -820 -1154 -1025 -1448 -1025 -1474 0 -5 487 -7 1205 -3 1200 5 1205 5
1249 26 94 46 130 94 1106 1476 401 568 633 887 648 892 4 2 431 -620 948
-1381 l942 -1385 -62 -6 c-33 -4 -648 -5 -1366 -3 -1239 3 -1308 2 -1369 -15
-92 -26 -152 -59 -195 -107 -88 -98 -1203 -1617 -1193 -1626 2 -2 1790 -3
3974 -2 l3970 3 -21 55 c-18 50 -1437 2107 -3336 4840 -1125 1619 -1077 1553
-1225 1686 -289 260 -641 386 -1070 383 -71 -1 -170 -7 -220 -15z"/>
<path d="M12575 6863 c-714 -34 -1336 -188 -1920 -473 -966 -472 -1630 -1302
-1825 -2280 -45 -228 -55 -333 -55 -605 0 -272 10 -378 55 -605 58 -287 136
-513 275 -795 361 -730 971 -1337 1680 -1670 419 -197 870 -312 1385 -355 664
-54 1101 -64 2710 -65 1370 0 1467 1 1497 17 33 19 165 185 930 1172 l443 571
-2413 6 c-1724 4 -2448 9 -2537 18 -312 29 -598 92 -875 193 -565 205 -889
575 -993 1133 -24 132 -24 465 2 600 94 506 389 873 876 1091 303 135 654 225
995 254 236 20 979 30 2197 30 1280 0 1300 1 1380 41 49 25 271 307 1032 1309
l308 405 -64 6 c-60 6 -4959 8 -5083 2z"/>
<path d="M13487 4004 c-4 -92 -7 -198 -7 -235 l0 -69 -51 -25 -50 -26 -213 20
c-250 25 -266 25 -266 8 0 -9 63 -21 220 -42 l220 -29 -6 -35 c-11 -65 -14
-71 -41 -71 -25 0 -1360 83 -1511 95 -89 6 -105 14 -139 68 -14 23 -28 37 -30
30 -5 -14 40 -105 59 -120 7 -5 144 -20 303 -32 393 -29 392 -29 398 -52 6
-24 47 -26 47 -3 0 15 10 16 78 11 63 -5 80 -10 91 -26 16 -25 37 -27 49 -5 8
14 21 15 85 9 66 -6 77 -10 77 -26 0 -24 35 -26 48 -3 6 11 16 14 30 10 20 -7
20 -8 -11 -36 -27 -24 -32 -35 -32 -73 0 -63 32 -97 91 -97 35 0 47 5 68 31
38 45 32 111 -13 146 -14 11 -12 12 11 13 18 0 29 -6 33 -20 7 -23 33 -27 41
-7 4 11 28 9 122 -12 97 -22 117 -30 120 -46 6 -34 32 -45 109 -45 l73 0 -6
30 c-6 29 -6 30 32 30 35 -1 37 -2 22 -14 -10 -7 -18 -21 -18 -30 0 -13 13
-16 83 -16 86 0 107 8 107 42 0 23 25 33 143 57 82 16 93 16 103 3 13 -18 44
-9 44 13 0 10 9 15 27 15 l26 0 -24 -26 c-18 -19 -24 -37 -24 -69 0 -60 33
-95 89 -95 23 0 48 6 57 13 55 42 50 133 -8 169 l-26 16 23 7 c17 5 27 3 35
-9 16 -22 42 -20 48 3 7 28 140 41 167 16 20 -18 40 -13 40 9 0 14 62 26 131
26 28 0 39 -4 39 -15 0 -22 41 -19 47 4 6 22 5 22 393 51 151 12 284 23 296
25 20 4 84 119 72 130 -3 3 -22 -16 -41 -44 l-36 -49 -83 -6 c-122 -10 -1495
-96 -1522 -96 -19 0 -24 8 -34 51 -7 29 -11 53 -10 54 2 1 101 15 221 31 157
20 217 32 217 41 0 17 -12 17 -262 -7 l-213 -21 -46 22 c-56 26 -58 34 -60
188 -2 203 -12 305 -30 309 -14 2 -17 -19 -22 -164z"/>
<path d="M12718 3033 c-125 -4 -167 -23 -50 -23 37 0 118 -3 180 -7 l112 -6 0
-269 0 -268 133 1 132 2 -95 14 c-52 8 -105 16 -117 19 l-23 4 0 245 c0 135 1
245 3 245 2 0 32 -11 66 -25 81 -33 97 -27 35 12 -58 38 -150 64 -214 61 -25
-1 -98 -4 -162 -5z"/>
<path d="M14110 3011 c-30 -10 -90 -35 -134 -56 -78 -37 -124 -46 -161 -31
-15 6 -13 1 8 -18 44 -40 97 -36 216 19 114 52 150 61 181 45 26 -14 50 -67
50 -110 0 -16 5 -30 10 -30 15 0 12 106 -5 145 -23 57 -71 67 -165 36z"/>
<path d="M12628 2943 c-161 -2 -258 -7 -258 -13 0 -6 67 -11 173 -12 l172 -2
-200 -6 c-229 -8 -215 -7 -215 -20 0 -17 397 -13 445 5 22 8 51 14 65 14 23 0
23 -1 8 -13 -16 -12 -17 -32 -11 -245 l6 -231 45 0 c25 0 43 -3 39 -6 -3 -4 2
-14 13 -23 15 -13 18 -25 13 -68 -5 -51 -7 -53 -37 -54 -17 0 -67 -4 -111 -8
-89 -8 -95 -6 -95 50 l0 37 80 7 c106 9 104 27 -2 23 l-83 -3 -17 38 c-13 28
-23 37 -41 37 -27 0 -41 -14 -66 -63 l-16 -32 -88 -3 -88 -3 20 39 c19 37 46
66 111 122 l25 21 -27 -5 c-39 -9 -35 -2 17 28 43 25 63 55 29 42 -9 -3 -28
-9 -42 -12 -22 -4 -19 0 16 21 23 15 42 31 42 36 0 12 -7 11 -75 -12 -45 -16
-95 -23 -195 -26 -125 -5 -134 -5 -121 11 23 28 5 29 -38 2 -52 -33 -61 -52
-61 -123 -1 -50 -2 -56 -14 -41 -12 17 -14 17 -29 0 -34 -37 -46 -113 -31
-191 5 -23 12 -31 28 -31 16 0 25 -10 36 -42 l15 -43 75 0 75 0 20 43 19 42
107 0 106 0 12 -40 c14 -46 29 -53 111 -48 41 2 56 7 58 19 2 13 -3 15 -23 12
-21 -5 -27 0 -41 33 -30 72 -6 204 38 204 22 0 48 -67 48 -123 l0 -58 74 7
c70 6 75 5 86 -16 12 -22 15 -23 117 -16 58 3 109 8 114 12 5 3 3 15 -6 27
-20 28 -20 120 0 137 24 20 42 4 49 -44 10 -66 25 -57 20 12 -10 112 4 102
-144 102 l-130 0 0 201 c0 179 2 200 16 195 9 -3 22 -6 30 -6 11 0 14 -16 14
-70 0 -40 4 -70 10 -70 6 0 10 38 10 95 l0 95 -47 2 -48 1 43 4 c34 3 42 8 38
19 -3 9 -6 20 -6 25 0 5 -6 8 -12 7 -7 -2 -129 -4 -270 -5z m-299 -407 c10
-12 9 -29 -5 -78 -28 -104 -22 -99 -127 -96 l-92 3 -3 78 c-2 50 1 84 9 93 17
20 202 20 218 0z m211 -246 l0 -40 -265 0 -265 0 1 28 c2 23 2 24 6 5 5 -25
23 -32 23 -9 0 8 3 22 7 32 5 14 2 16 -20 12 -15 -3 -27 -1 -27 3 0 5 122 9
270 9 l270 0 0 -40z"/>
<path d="M14090 2875 c-49 -23 -83 -33 -99 -29 -21 5 -23 3 -12 -10 20 -24 68
-19 140 13 72 32 101 30 112 -10 12 -41 10 -59 -6 -59 -11 0 -15 -11 -15 -39
0 -34 -3 -39 -32 -47 -29 -9 -34 -15 -39 -54 -4 -25 -6 -46 -5 -47 3 -4 209
66 222 75 6 4 14 26 18 50 7 47 7 47 -51 25 -9 -4 -13 6 -13 31 0 34 -1 35
-26 26 -14 -6 -27 -10 -30 -10 -2 0 -4 20 -4 44 0 85 -42 95 -160 41z"/>
<path d="M12725 2858 c3 -13 9 -94 12 -180 6 -158 6 -158 29 -158 l24 0 0 180
0 180 -36 0 c-33 0 -36 -2 -29 -22z"/>
<path d="M12273 2859 c-73 -21 -29 -29 160 -29 203 0 237 4 237 26 0 11 -33
14 -182 13 -101 0 -198 -5 -215 -10z"/>
<path d="M12262 2811 c-15 -9 -42 -92 -42 -128 l0 -23 191 0 c124 0 188 3 184
10 -3 6 -30 10 -59 10 -31 0 -58 5 -64 13 -5 6 -13 38 -17 70 l-7 57 -87 0
c-47 0 -92 -4 -99 -9z"/>
<path d="M14550 2757 c-61 -19 -75 -27 -80 -46 -5 -22 -30 -33 -228 -99 -208
-69 -222 -75 -222 -98 0 -13 3 -24 8 -24 4 0 139 31 301 68 244 57 296 72 302
88 10 25 11 134 2 133 -5 0 -42 -10 -83 -22z"/>
<path d="M14370 2554 c-427 -101 -449 -105 -543 -102 -53 2 -97 1 -97 -2 0 -4
1270 -245 1355 -256 67 -10 -15 17 -210 67 -110 28 -204 55 -209 59 -10 10 18
109 50 172 13 26 44 72 69 102 45 56 51 67 38 65 -5 0 -208 -48 -453 -105z"/>
<path d="M12626 2550 c-6 -52 -4 -65 14 -90 19 -26 28 -30 68 -30 34 0 43 3
32 10 -13 8 -12 10 3 10 25 0 21 20 -5 21 -14 0 -17 2 -8 6 43 14 45 16 20 22
-21 6 -25 13 -28 51 -4 50 -13 60 -58 60 -31 0 -32 -1 -38 -60z"/>
<path d="M13822 2395 c3 -3 66 -26 139 -50 118 -39 127 -53 19 -28 -17 4 -22
2 -15 -4 6 -6 69 -30 140 -53 137 -45 168 -60 121 -60 -15 0 -25 -4 -22 -9 3
-4 52 -11 108 -15 57 -4 115 -9 131 -12 33 -7 36 9 5 24 -23 11 -23 11 2 7 73
-13 271 -36 282 -33 7 3 -23 14 -67 25 -99 26 -66 28 105 8 119 -14 197 -18
175 -9 -15 6 -1096 214 -1114 214 -8 0 -12 -2 -9 -5z"/>
</g>
</svg>
